<svg
    xmlns="http://www.w3.org/2000/svg"
    width="30"
    height="30"
    viewBox="0 0 16 28"
>
    <path
        id="패스_4492"
        data-name="패스 4492"
        d="M154.577,403.146l11.814-11.3a1.6,1.6,0,0,0,.083-2.2,1.465,1.465,0,0,0-2.123-.087L151.344,402c-.015.016-.021.036-.035.05s-.035.022-.05.037a1.522,1.522,0,0,0-.123.21,1.571,1.571,0,0,0-.156.266,1.548,1.548,0,0,0-.065.286,1.008,1.008,0,0,0,0,.586,1.546,1.546,0,0,0,.065.286,1.566,1.566,0,0,0,.156.266,1.518,1.518,0,0,0,.123.21c.015.016.033.02.048.036s.021.036.036.051l13.006,12.445a1.468,1.468,0,0,0,2.123-.087,1.6,1.6,0,0,0-.083-2.2Z"
        transform="translate(-150.872 -389.146)"
        fill="#191919"
    />
</svg>